<svg xmlns="http://www.w3.org/2000/svg" xmlns:xlink="http://www.w3.org/1999/xlink" fill="none" version="1.1" width="16" height="16" viewBox="0 0 16 16"><g style="mix-blend-mode:passthrough"><g style="mix-blend-mode:passthrough"><rect x="0" y="0" width="16" height="16" rx="8" fill="#3370FF" fill-opacity="1"/><rect x="0.5" y="0.5" width="15" height="15" rx="7.5" fill-opacity="0" stroke-opacity="1" stroke="#3370FF" fill="none" stroke-width="1"/></g><g style="mix-blend-mode:passthrough"><path d="M8.10872,4.72135C7.34701,4.72135,6.72852,4.97201,6.26953,5.48958C5.817057,5.97135,5.589193,6.61263,5.579427,7.41016L6.66992,7.41016C6.68945,6.83073,6.8099,6.40104,7.04753,6.10156C7.27865,5.79232,7.61719,5.64258,8.069659999999999,5.64258C8.48958,5.64258,8.81836,5.74023,9.03971,5.94206C9.25781,6.14062,9.368490000000001,6.4401,9.368490000000001,6.8405C9.368490000000001,7.26042,9.19922,7.65104,8.88021,8.01237C8.67839,8.2207,8.33984,8.49089,7.85807,8.83268C7.04753,9.39258,6.50716,9.82227,6.25,10.1315C5.768229,10.6719,5.537109,11.2904,5.537109,12L10.45898,12L10.45898,11.043L6.88802,11.043C7.0377600000000005,10.6523,7.5,10.1999,8.268229999999999,9.69206C8.97786,9.21029,9.4694,8.83268,9.74935,8.53971C10.20833,8.0319,10.44922,7.47201,10.44922,6.85026C10.44922,6.22201,10.22786,5.71094,9.79818,5.31055C9.35872,4.91016,8.78906,4.72135,8.10872,4.72135Z" fill="#FFFFFF" fill-opacity="1"/></g></g></svg>