<?xml version="1.0" standalone="no"?><!DOCTYPE svg PUBLIC "-//W3C//DTD SVG 1.1//EN" "http://www.w3.org/Graphics/SVG/1.1/DTD/svg11.dtd"><svg t="1660544849710" class="icon" viewBox="0 0 1024 1024" version="1.1" xmlns="http://www.w3.org/2000/svg" p-id="9763" xmlns:xlink="http://www.w3.org/1999/xlink" width="32" height="32"><defs><style type="text/css">@font-face { font-family: feedback-iconfont; src: url("//at.alicdn.com/t/font_1031158_u69w8yhxdu.woff2?t=1630033759944") format("woff2"), url("//at.alicdn.com/t/font_1031158_u69w8yhxdu.woff?t=1630033759944") format("woff"), url("//at.alicdn.com/t/font_1031158_u69w8yhxdu.ttf?t=1630033759944") format("truetype"); }
</style></defs><path d="M768 73.142857H256C195.291429 73.142857 146.285714 122.148571 146.285714 182.857143v658.285714c0 60.708571 49.005714 109.714286 109.714286 109.714286h512c60.708571 0 109.714286-49.005714 109.714286-109.714286V182.857143c0-60.708571-49.005714-109.714286-109.714286-109.714286zM365.714286 566.857143H292.571429v-73.142857h73.142857v73.142857z m0-182.857143H292.571429v-73.142857h73.142857v73.142857zM731.428571 731.428571h-292.571428v-36.571428h292.571428v36.571428z m0-182.857142h-292.571428v-36.571429h292.571428v36.571429z m0-182.857143h-292.571428V329.142857h292.571428v36.571429z" p-id="9764" fill="#f3a536"></path></svg>