<?xml version="1.0" standalone="no"?><!DOCTYPE svg PUBLIC "-//W3C//DTD SVG 1.1//EN" "http://www.w3.org/Graphics/SVG/1.1/DTD/svg11.dtd"><svg t="1660544786304" class="icon" viewBox="0 0 1178 1024" version="1.1" xmlns="http://www.w3.org/2000/svg" p-id="7455" width="36.8125" height="32" xmlns:xlink="http://www.w3.org/1999/xlink"><defs><style type="text/css">@font-face { font-family: feedback-iconfont; src: url("//at.alicdn.com/t/font_1031158_u69w8yhxdu.woff2?t=1630033759944") format("woff2"), url("//at.alicdn.com/t/font_1031158_u69w8yhxdu.woff?t=1630033759944") format("woff"), url("//at.alicdn.com/t/font_1031158_u69w8yhxdu.ttf?t=1630033759944") format("truetype"); }
</style></defs><path d="M934.0928 780.5696 911.36 748.3136 1154.816 578.8928 1177.5488 611.1488 934.0928 780.5696ZM834.7648 710.6816C811.392 726.8864 779.2384 721.152 762.9312 697.9328L625.3312 501.5808C609.0496 478.336 614.8096 446.3872 638.1824 430.1824L835.7376 293.4272C859.1104 277.248 891.264 282.9568 907.5456 306.2016L1045.1456 502.528C1061.4272 525.7728 1055.6928 557.7216 1032.2944 573.9264L834.7648 710.6816ZM629.12 363.8528C609.536 377.728 582.3744 373.1968 568.4224 353.7408L492.6464 248.064C478.72 228.608 483.2768 201.6 502.8352 187.7504L609.152 112.4352C628.736 98.5856 655.8976 103.1168 669.8496 122.5728L745.6256 228.2496C759.552 247.7056 754.9952 274.7136 735.4368 288.5632L629.12 363.8528ZM599.68 712.1664 208.768 39.1936 0 39.1936 0 0 237.5936 0 237.5936 10.3936 237.7472 10.2912 633.984 692.4544 599.68 712.1664ZM237.5936 334.3872 79.2064 334.3872 79.2064 295.1936 237.5936 295.1936 237.5936 334.3872ZM376.8064 531.9936 119.1936 531.9936 119.1936 492.0064 376.8064 492.0064 376.8064 531.9936ZM495.2064 728.8064 158.3872 728.8064 158.3872 689.5872 495.2064 689.5872 495.2064 728.8064ZM713.1904 708.7872C800.896 708.7872 871.9872 779.3664 871.9872 866.4064 871.9872 953.4464 800.896 1024 713.1904 1024 625.4848 1024 554.3936 953.4464 554.3936 866.4064 554.3936 779.3664 625.4848 708.7872 713.1904 708.7872ZM713.1904 964.7872C767.7696 964.7872 812.0064 920.7552 812.0064 866.4064 812.0064 812.0576 767.7696 768 713.1904 768 658.6368 768 614.4 812.0576 614.4 866.4064 614.4 920.7552 658.6368 964.7872 713.1904 964.7872Z" p-id="7456" fill="#f3a536"></path></svg>